<svg width="253" height="334" viewBox="0 0 253 334" fill="none" xmlns="http://www.w3.org/2000/svg">
<g opacity="0.3">
<path d="M241.659 223.362C255.223 196.85 279.15 131.374 266.351 81.5761C253.553 31.778 244.558 155.351 241.659 223.362Z" fill="#BDD0B5"/>
<path d="M225.662 1C237.625 92.5732 217.431 168.723 205.839 195.351C198.536 145.899 201.666 106.475 202.709 96.4464C203.543 88.4234 218.359 29.4725 225.662 1Z" fill="#BDD0B5"/>
<path d="M170.018 174.256C159.585 156.965 111.175 116.227 1 91.6049C41.4577 125.265 131.415 189.68 167.584 178.06C182.142 187.011 209.638 205.473 234.356 225.89C212.446 229.197 164.454 239.339 147.761 253.449C126.894 271.086 87.5957 294.601 56.9916 297.368C77.7421 296.907 125.642 291.282 151.238 272.469C183.233 248.953 232.965 226.462 236.095 227.333C247.341 236.715 257.928 246.468 266.351 255.87V248.953C249.311 231.086 206.187 191.132 170.018 174.256Z" fill="#BDD0B5"/>
<path d="M197.492 198.809C173.032 213.679 100.463 246.463 5.86884 258.636C54.8251 234.775 161.689 189.403 197.492 198.809Z" fill="#BDD0B5"/>
<path d="M184.277 297.368C221.002 274.682 254.295 269.702 266.351 270.048V273.852C266.351 281.114 231.226 300.48 197.492 317.08C170.505 330.359 114.838 333.218 90.3779 332.987C106.375 330.567 147.552 320.054 184.277 297.368Z" fill="#BDD0B5"/>
<path d="M234.356 225.89C209.638 205.473 182.142 187.011 167.584 178.06C131.415 189.68 41.4577 125.265 1.00001 91.6049C111.175 116.227 159.585 156.965 170.018 174.256C206.187 191.132 249.311 231.086 266.351 248.953V255.87C257.928 246.468 247.341 236.715 236.095 227.333M234.356 225.89C212.446 229.197 164.454 239.339 147.761 253.449C126.894 271.086 87.5957 294.601 56.9916 297.368C77.7421 296.907 125.642 291.282 151.238 272.469C183.233 248.953 232.965 226.462 236.095 227.333M234.356 225.89C234.937 226.37 235.517 226.851 236.095 227.333M241.659 223.362C255.223 196.85 279.15 131.374 266.351 81.5762C253.553 31.778 244.558 155.351 241.659 223.362ZM205.839 195.351C217.431 168.723 237.625 92.5732 225.662 1C218.359 29.4725 203.543 88.4234 202.709 96.4464C201.666 106.475 198.536 145.899 205.839 195.351ZM197.492 198.809C173.032 213.679 100.463 246.463 5.86884 258.636C54.8252 234.775 161.689 189.403 197.492 198.809ZM266.351 270.048C254.295 269.702 221.002 274.682 184.277 297.368C147.552 320.054 106.375 330.567 90.3779 332.987C114.838 333.218 170.505 330.359 197.492 317.08C231.226 300.48 266.351 281.114 266.351 273.852C266.351 268.042 266.351 268.895 266.351 270.048Z" stroke="#BDD0B5" stroke-width="2"/>
</g>
</svg>
