<svg width="393" height="520" viewBox="0 0 393 520" fill="none" xmlns="http://www.w3.org/2000/svg">
<g opacity="0.3">
<path d="M18.9331 347.939C-2.0924 306.573 -39.1834 204.415 -19.344 126.718C0.495354 49.0211 14.4404 241.825 18.9331 347.939Z" fill="#BDD0B5"/>
<path d="M43.7323 1C25.1868 143.876 56.4913 262.688 74.4618 304.234C85.7832 227.077 80.9312 165.567 79.3138 149.919C78.02 137.402 55.0537 45.424 43.7323 1Z" fill="#BDD0B5"/>
<path d="M129.991 271.321C146.164 244.343 221.209 180.782 392 142.365C329.283 194.883 189.832 295.386 133.764 277.256C111.196 291.221 68.5724 320.027 30.2545 351.882C64.2186 357.042 138.616 372.867 164.494 394.881C196.841 422.399 257.761 459.089 305.203 463.405C273.035 462.686 198.782 453.909 159.103 424.557C109.504 387.867 32.4109 352.775 27.5589 354.134C10.1255 368.772 -6.28661 383.989 -19.344 398.658V387.867C7.07254 359.989 73.9227 297.652 129.991 271.321Z" fill="#BDD0B5"/>
<path d="M87.4005 309.63C125.318 332.831 237.813 383.982 384.452 402.974C308.561 365.745 142.903 294.954 87.4005 309.63Z" fill="#BDD0B5"/>
<path d="M107.887 463.405C50.9564 428.01 -0.654757 420.24 -19.344 420.78V426.715C-19.344 438.046 35.1065 468.262 87.4005 494.161C129.236 514.88 215.53 519.34 253.448 518.98C228.648 515.203 164.817 498.801 107.887 463.405Z" fill="#BDD0B5"/>
<path d="M30.2545 351.882C68.5724 320.027 111.196 291.221 133.764 277.256C189.832 295.386 329.283 194.883 392 142.365C221.209 180.782 146.164 244.343 129.991 271.321C73.9227 297.652 7.07255 359.989 -19.344 387.867V398.658C-6.28661 383.989 10.1255 368.772 27.5589 354.134M30.2545 351.882C64.2186 357.042 138.616 372.867 164.494 394.881C196.841 422.399 257.761 459.089 305.203 463.405C273.035 462.686 198.782 453.909 159.103 424.557C109.504 387.867 32.4109 352.775 27.5589 354.134M30.2545 351.882C29.3534 352.631 28.4548 353.382 27.5589 354.134M18.9331 347.939C-2.09239 306.573 -39.1834 204.415 -19.344 126.718C0.495353 49.0211 14.4404 241.825 18.9331 347.939ZM74.4618 304.234C56.4913 262.688 25.1868 143.876 43.7323 1C55.0537 45.424 78.02 137.402 79.3138 149.919C80.9312 165.567 85.7832 227.077 74.4618 304.234ZM87.4005 309.63C125.318 332.831 237.813 383.982 384.452 402.974C308.561 365.745 142.903 294.954 87.4005 309.63ZM-19.344 420.78C-0.654756 420.24 50.9564 428.01 107.887 463.405C164.817 498.801 228.648 515.203 253.448 518.98C215.53 519.34 129.236 514.88 87.4005 494.161C35.1065 468.262 -19.344 438.046 -19.344 426.715C-19.344 417.651 -19.344 418.981 -19.344 420.78Z" stroke="#BDD0B5" stroke-width="2"/>
</g>
</svg>
